<svg width="391" height="73" viewBox="0 0 391 73" fill="none" xmlns="http://www.w3.org/2000/svg">
<path d="M6.328 66.2L2.48689 70.8093L2.5056 70.8249L2.52443 70.8404L6.328 66.2ZM6.328 6.776L10.1691 11.3853L10.1765 11.3791L6.328 6.776ZM50.2 2.744L45.7156 6.73018L45.95 6.99397L46.2138 7.22845L50.2 2.744ZM23.896 21.656L27.6442 26.3412L27.7364 26.2675L27.8256 26.1901L23.896 21.656ZM23.896 51.608L20.1478 56.2932L20.2462 56.3719L20.3478 56.4464L23.896 51.608ZM50.2 53.528L45.7156 57.5142L45.95 57.778L46.2138 58.0125L50.2 53.528ZM50.2 70.232L54.4426 74.4746L54.4426 74.4746L50.2 70.232ZM47.608 65H24.184V77H47.608V65ZM24.184 65C16.8087 65 12.4931 63.4953 10.1316 61.5596L2.52443 70.8404C7.9709 75.3047 15.5593 77 24.184 77V65ZM10.1691 61.5907C8.11607 59.8798 6.568 56.9202 6.568 51.416H-5.432C-5.432 59.2238 -3.14007 66.1202 2.48689 70.8093L10.1691 61.5907ZM6.568 51.416V21.56H-5.432V51.416H6.568ZM6.568 21.56C6.568 16.0558 8.11607 13.0962 10.1691 11.3853L2.48689 2.16667C-3.14007 6.85581 -5.432 13.7521 -5.432 21.56H6.568ZM10.1765 11.3791C12.5341 9.40808 16.83 7.88 24.184 7.88V-4.12C15.538 -4.12 7.92994 -2.38409 2.47948 2.17286L10.1765 11.3791ZM24.184 7.88H47.608V-4.12H24.184V7.88ZM47.608 7.88C47.7734 7.88 47.6166 7.90343 47.2706 7.7881C46.888 7.66054 46.275 7.3596 45.7156 6.73018L54.6845 -1.24219C52.5155 -3.68221 49.5613 -4.12 47.608 -4.12V7.88ZM46.2138 7.22845C45.5844 6.66896 45.2835 6.05605 45.1559 5.67337C45.0406 5.32737 45.064 5.17062 45.064 5.336H57.064C57.064 3.38272 56.6262 0.428453 54.1862 -1.74046L46.2138 7.22845ZM45.064 5.336V16.952H57.064V5.336H45.064ZM45.064 16.952C45.064 17.3531 44.9578 16.397 45.9574 15.3974L54.4426 23.8826C56.5942 21.731 57.064 18.9829 57.064 16.952H45.064ZM45.9574 15.3974C46.561 14.7938 47.1676 14.5509 47.4635 14.4632C47.7395 14.3814 47.8262 14.408 47.608 14.408V26.408C49.3965 26.408 52.2467 26.0786 54.4426 23.8826L45.9574 15.3974ZM47.608 14.408H28.312V26.408H47.608V14.408ZM28.312 14.408C25.6568 14.408 22.4858 14.9384 19.9664 17.1219L27.8256 26.1901C27.518 26.4567 27.2931 26.5104 27.3517 26.4939C27.4266 26.4727 27.7177 26.408 28.312 26.408V14.408ZM20.1478 16.9708C17.3576 19.203 16.456 22.3795 16.456 25.208H28.456C28.456 24.9927 28.4899 25.0944 28.3764 25.3742C28.2462 25.6955 27.9985 26.0577 27.6442 26.3412L20.1478 16.9708ZM16.456 25.208V48.056H28.456V25.208H16.456ZM16.456 48.056C16.456 50.8845 17.3576 54.061 20.1478 56.2932L27.6442 46.9228C27.9985 47.2063 28.2462 47.5685 28.3764 47.8898C28.4899 48.1696 28.456 48.2713 28.456 48.056H16.456ZM20.3478 56.4464C22.8215 58.2605 25.8241 58.664 28.312 58.664V46.664C27.6536 46.664 27.2785 46.6035 27.1154 46.5645C26.9536 46.5258 27.1311 46.5399 27.4442 46.7696L20.3478 56.4464ZM28.312 58.664H47.608V46.664H28.312V58.664ZM47.608 58.664C47.7734 58.664 47.6166 58.6874 47.2706 58.5721C46.888 58.4445 46.275 58.1436 45.7156 57.5142L54.6845 49.5418C52.5155 47.1018 49.5613 46.664 47.608 46.664V58.664ZM46.2138 58.0125C45.5844 57.453 45.2835 56.84 45.1559 56.4574C45.0406 56.1114 45.064 55.9546 45.064 56.12H57.064C57.064 54.1667 56.6262 51.2125 54.1862 49.0435L46.2138 58.0125ZM45.064 56.12V67.544H57.064V56.12H45.064ZM45.064 67.544C45.064 67.9451 44.9578 66.989 45.9574 65.9894L54.4426 74.4746C56.5942 72.323 57.064 69.5749 57.064 67.544H45.064ZM45.9574 65.9894C46.561 65.3858 47.1676 65.1429 47.4635 65.0552C47.7395 64.9734 47.8262 65 47.608 65V77C49.3965 77 52.2467 76.6706 54.4426 74.4746L45.9574 65.9894ZM118.653 60.92L113.022 58.8458L113.007 58.8883L112.992 58.9311L118.653 60.92ZM114.045 67.064L117.689 71.8301L117.699 71.8224L117.709 71.8147L114.045 67.064ZM104.925 71L103.492 65.1736L103.481 65.1763L103.469 65.1791L104.925 71ZM75.4525 71L74.0198 76.8264L74.0198 76.8264L75.4525 71ZM66.2365 67.064L62.5052 71.7627L62.5809 71.8228L62.6586 71.8805L66.2365 67.064ZM61.6285 60.92L55.9515 62.8621L55.9827 62.9533L56.0168 63.0434L61.6285 60.92ZM61.6285 12.152L55.9984 10.0778L55.9828 10.1203L55.9677 10.1631L61.6285 12.152ZM66.2365 5.912L62.5717 1.1613L62.5383 1.18708L62.5052 1.21333L66.2365 5.912ZM75.4525 1.88L74.0198 -3.94643L74.0198 -3.94643L75.4525 1.88ZM104.925 1.88L103.469 7.70085L103.481 7.70366L103.492 7.70643L104.925 1.88ZM114.045 5.912L110.313 10.6107L110.346 10.6369L110.38 10.6627L114.045 5.912ZM118.653 12.152L112.976 14.0941L113.007 14.1853L113.041 14.2753L118.653 12.152ZM83.6125 52.664L79.5186 57.0503L79.5994 57.1257L79.6829 57.1981L83.6125 52.664ZM96.8605 52.664L100.79 57.1981L100.874 57.1257L100.954 57.0503L96.8605 52.664ZM96.8605 20.504L92.7666 24.8903L92.8474 24.9657L92.9309 25.0381L96.8605 20.504ZM83.6125 20.504L87.5421 25.0381L87.6256 24.9657L87.7064 24.8903L83.6125 20.504ZM113.997 52.856C113.997 55.1873 113.643 57.1617 113.022 58.8458L124.283 62.9942C125.454 59.8143 125.997 56.4127 125.997 52.856H113.997ZM112.992 58.9311C112.592 60.0698 111.822 61.2008 110.38 62.3133L117.709 71.8147C120.747 69.4712 123.049 66.5062 124.313 62.9089L112.992 58.9311ZM110.4 62.2979C109.113 63.2822 106.937 64.3264 103.492 65.1736L106.357 76.8264C110.72 75.7536 114.624 74.1738 117.689 71.8301L110.4 62.2979ZM103.469 65.1791C100.279 65.9766 95.9176 66.44 90.2365 66.44V78.44C96.4594 78.44 101.89 77.9434 106.38 76.8209L103.469 65.1791ZM90.2365 66.44C84.56 66.44 80.1546 65.9775 76.8852 65.1736L74.0198 76.8264C78.5584 77.9425 84.009 78.44 90.2365 78.44V66.44ZM76.8852 65.1736C73.4421 64.3269 71.1969 63.2745 69.8144 62.2475L62.6586 71.8805C65.7561 74.1815 69.6549 75.7531 74.0198 76.8264L76.8852 65.1736ZM69.9678 62.3653C68.5542 61.2428 67.7164 60.0552 67.2402 58.7966L56.0168 63.0434C57.3326 66.5208 59.5668 69.4292 62.5052 71.7627L69.9678 62.3653ZM67.3055 58.9779C66.7159 57.2546 66.3805 55.2337 66.3805 52.856H54.3805C54.3805 56.3663 54.8771 59.7214 55.9515 62.8621L67.3055 58.9779ZM66.3805 52.856V20.12H54.3805V52.856H66.3805ZM66.3805 20.12C66.3805 17.7388 66.7169 15.77 67.2893 14.1409L55.9677 10.1631C54.8761 13.2699 54.3805 16.6132 54.3805 20.12H66.3805ZM67.2586 14.2262C67.7467 12.9013 68.5888 11.7058 69.9678 10.6107L62.5052 1.21333C59.5322 3.57424 57.3023 6.5387 55.9984 10.0778L67.2586 14.2262ZM69.9013 10.6627C71.2634 9.61191 73.4755 8.54489 76.8852 7.70643L74.0198 -3.94643C69.6215 -2.8649 65.6896 -1.24392 62.5717 1.1613L69.9013 10.6627ZM76.8852 7.70643C80.1546 6.90249 84.56 6.44 90.2365 6.44V-5.56C84.009 -5.56 78.5584 -5.0625 74.0198 -3.94643L76.8852 7.70643ZM90.2365 6.44C95.9176 6.44 100.279 6.90337 103.469 7.70085L106.38 -3.94086C101.89 -5.06337 96.4594 -5.56 90.2365 -5.56V6.44ZM103.492 7.70643C106.903 8.5453 109.046 9.60399 110.313 10.6107L117.776 1.21333C114.691 -1.236 110.754 -2.8653 106.357 -3.94643L103.492 7.70643ZM110.38 10.6627C111.786 11.7473 112.562 12.8865 112.976 14.0941L124.329 10.2099C123.079 6.55354 120.783 3.53271 117.709 1.16131L110.38 10.6627ZM113.041 14.2753C113.642 15.8641 113.997 17.7853 113.997 20.12H125.997C125.997 16.5667 125.455 13.1759 124.264 10.0286L113.041 14.2753ZM113.997 20.12V52.856H125.997V20.12H113.997ZM76.1725 49.4C76.1725 52.3913 77.3785 55.0529 79.5186 57.0503L87.7064 48.2777C87.7575 48.3254 87.9018 48.4817 88.022 48.7542C88.1438 49.0301 88.1725 49.2706 88.1725 49.4H76.1725ZM79.6829 57.1981C81.369 58.6594 83.4238 59.2224 84.8776 59.4963C86.4876 59.7996 88.3117 59.912 90.2365 59.912V47.912C88.7053 47.912 87.6974 47.8164 87.0994 47.7037C86.8089 47.649 86.7186 47.609 86.7656 47.6275C86.8003 47.6412 87.1274 47.7705 87.5421 48.1299L79.6829 57.1981ZM90.2365 59.912C92.1613 59.912 93.9854 59.7996 95.5954 59.4963C97.0492 59.2224 99.104 58.6594 100.79 57.1981L92.9309 48.1299C93.3456 47.7705 93.6727 47.6412 93.7074 47.6275C93.7544 47.609 93.6641 47.649 93.3736 47.7037C92.7756 47.8164 91.7677 47.912 90.2365 47.912V59.912ZM100.954 57.0503C103.095 55.0529 104.301 52.3913 104.301 49.4H92.3005C92.3005 49.2706 92.3292 49.0301 92.451 48.7542C92.5712 48.4817 92.7155 48.3254 92.7666 48.2777L100.954 57.0503ZM104.301 49.4V23.576H92.3005V49.4H104.301ZM104.301 23.576C104.301 20.5331 102.998 17.8834 100.79 15.9699L92.9309 25.0381C92.8547 24.9721 92.6657 24.7796 92.5077 24.4426C92.3466 24.0988 92.3005 23.7808 92.3005 23.576H104.301ZM100.954 16.1177C99.2721 14.5475 97.1834 13.9213 95.6776 13.6158C94.0317 13.2819 92.1772 13.16 90.2365 13.16V25.16C91.7518 25.16 92.7293 25.2621 93.2914 25.3762C93.5626 25.4312 93.631 25.4682 93.5632 25.4395C93.503 25.414 93.1706 25.2674 92.7666 24.8903L100.954 16.1177ZM90.2365 13.16C88.2958 13.16 86.4413 13.2819 84.7954 13.6158C83.2897 13.9213 81.2009 14.5475 79.5186 16.1177L87.7064 24.8903C87.3024 25.2674 86.97 25.414 86.9098 25.4395C86.842 25.4682 86.9104 25.4312 87.1816 25.3762C87.7437 25.2621 88.7212 25.16 90.2365 25.16V13.16ZM79.6829 15.9699C77.475 17.8834 76.1725 20.5331 76.1725 23.576H88.1725C88.1725 23.7808 88.1264 24.0988 87.9653 24.4426C87.8073 24.7796 87.6183 24.9721 87.5421 25.0381L79.6829 15.9699ZM76.1725 23.576V49.4H88.1725V23.576H76.1725ZM145.082 70.328L142.059 75.5107L142.147 75.5623L142.237 75.6108L145.082 70.328ZM143.258 67.832L148.888 65.7578L148.859 65.6803L148.829 65.6037L143.258 67.832ZM133.85 44.312L139.421 42.0837L139.412 42.0619L139.403 42.0402L133.85 44.312ZM132.41 40.664L126.752 42.6609L126.771 42.716L126.792 42.7707L132.41 40.664ZM131.45 37.592L137.247 36.046L137.247 36.046L131.45 37.592ZM130.874 34.616L124.884 34.9683L124.896 35.1649L124.92 35.3602L130.874 34.616ZM131.546 2.744L127.303 -1.49864L127.303 -1.49864L131.546 2.744ZM152.282 2.744L148.268 7.20377L148.397 7.32034L148.534 7.4292L152.282 2.744ZM153.434 33.752L147.55 34.9287L147.55 34.9287L153.434 33.752ZM154.01 35.768L159.698 33.8584L159.674 33.7877L159.649 33.7176L154.01 35.768ZM158.522 49.208L164.269 47.4839L164.241 47.3907L164.21 47.2984L158.522 49.208ZM159.194 50.552L154.951 54.7946L155.253 55.0962L155.594 55.352L159.194 50.552ZM162.554 50.552L166.154 55.352L166.495 55.0962L166.796 54.7946L162.554 50.552ZM163.226 49.208L157.534 47.3106L157.505 47.3969L157.479 47.4839L163.226 49.208ZM167.738 35.672L162.099 33.6215L162.071 33.6977L162.046 33.7746L167.738 35.672ZM168.314 33.656L162.43 32.4793L162.43 32.4793L168.314 33.656ZM169.274 2.744L165.031 -1.49864L165.031 -1.49864L169.274 2.744ZM189.626 2.744L185.141 6.73018L185.376 6.99397L185.64 7.22845L189.626 2.744ZM190.298 34.616L184.339 33.9149L184.32 34.0779L184.309 34.2417L190.298 34.616ZM189.818 37.592L184.02 36.046L184.02 36.046L189.818 37.592ZM188.858 40.664L194.476 42.7707L194.496 42.716L194.516 42.6609L188.858 40.664ZM187.418 44.312L181.864 42.0402L181.856 42.0619L181.847 42.0837L187.418 44.312ZM178.01 67.832L172.439 65.6037L172.408 65.6803L172.38 65.7578L178.01 67.832ZM176.09 70.328L173.245 65.0452L173.155 65.0937L173.067 65.1453L176.09 70.328ZM173.114 65H148.154V77H173.114V65ZM148.154 65C147.91 65 147.786 64.9772 147.756 64.9706C147.73 64.965 147.801 64.9775 147.926 65.0452L142.237 75.6108C144.159 76.6455 146.222 77 148.154 77V65ZM148.105 65.1453C148.539 65.3986 148.787 65.682 148.894 65.8279C148.991 65.9599 148.966 65.971 148.888 65.7578L137.628 69.9062C138.343 71.8479 139.643 74.1014 142.059 75.5107L148.105 65.1453ZM148.829 65.6037L139.421 42.0837L128.279 46.5403L137.687 70.0603L148.829 65.6037ZM139.403 42.0402C138.841 40.6675 138.385 39.5093 138.028 38.5573L126.792 42.7707C127.203 43.8667 127.706 45.1405 128.296 46.5838L139.403 42.0402ZM138.068 38.6671C137.728 37.7045 137.457 36.8321 137.247 36.046L125.652 39.138C125.955 40.2719 126.324 41.4475 126.752 42.6609L138.068 38.6671ZM137.247 36.046C137.064 35.3594 136.923 34.6357 136.827 33.8718L124.92 35.3602C125.081 36.6443 125.323 37.9046 125.652 39.138L137.247 36.046ZM136.863 34.2637C136.808 33.3295 136.778 32.1418 136.778 30.68H124.778C124.778 32.2902 124.811 33.7265 124.884 34.9683L136.863 34.2637ZM136.778 30.68V5.336H124.778V30.68H136.778ZM136.778 5.336C136.778 5.11782 136.804 5.20448 136.723 5.48053C136.635 5.77642 136.392 6.38304 135.788 6.98663L127.303 -1.49864C125.107 0.697276 124.778 3.54752 124.778 5.336H136.778ZM135.788 6.98664C134.789 7.98624 133.833 7.88 134.234 7.88V-4.12C132.203 -4.12 129.455 -3.65025 127.303 -1.49864L135.788 6.98664ZM134.234 7.88H149.498V-4.12H134.234V7.88ZM149.498 7.88C149.84 7.88 149.111 7.96243 148.268 7.20377L156.296 -1.71577C154.173 -3.62644 151.587 -4.12 149.498 -4.12V7.88ZM148.534 7.4292C147.901 6.92304 147.545 6.31948 147.375 5.85988C147.223 5.4496 147.242 5.22468 147.242 5.336H159.242C159.242 3.20478 158.676 0.175926 156.03 -1.94121L148.534 7.4292ZM147.242 5.336V31.832H159.242V5.336H147.242ZM147.242 31.832C147.242 32.8749 147.346 33.9089 147.55 34.9287L159.317 32.5753C159.265 32.315 159.242 32.0691 159.242 31.832H147.242ZM147.55 34.9287C147.746 35.9053 148.026 36.8705 148.371 37.8184L159.649 33.7176C159.481 33.2575 159.378 32.8787 159.317 32.5753L147.55 34.9287ZM148.322 37.6776L152.834 51.1176L164.21 47.2984L159.698 33.8584L148.322 37.6776ZM152.775 50.9321C153.049 51.8452 153.622 53.4654 154.951 54.7946L163.436 46.3094C163.902 46.7749 164.126 47.1923 164.2 47.3407C164.284 47.5073 164.296 47.5756 164.269 47.4839L152.775 50.9321ZM155.594 55.352C157.346 56.6663 159.257 56.84 160.346 56.84V44.84C160.445 44.84 160.73 44.8473 161.129 44.9471C161.535 45.0485 162.15 45.269 162.794 45.752L155.594 55.352ZM160.346 56.84H161.402V44.84H160.346V56.84ZM161.402 56.84C162.491 56.84 164.401 56.6663 166.154 55.352L158.954 45.752C159.598 45.269 160.213 45.0485 160.619 44.9471C161.018 44.8473 161.302 44.84 161.402 44.84V56.84ZM166.796 54.7946C168.126 53.4654 168.699 51.8452 168.973 50.9321L157.479 47.4839C157.451 47.5756 157.464 47.5073 157.547 47.3407C157.621 47.1923 157.846 46.7749 158.311 46.3094L166.796 54.7946ZM168.918 51.1054L173.43 37.5694L162.046 33.7746L157.534 47.3106L168.918 51.1054ZM173.377 37.7225C173.721 36.7745 174.002 35.8093 174.197 34.8327L162.43 32.4793C162.37 32.7827 162.266 33.1615 162.099 33.6215L173.377 37.7225ZM174.197 34.8327C174.401 33.8129 174.506 32.7789 174.506 31.736H162.506C162.506 31.9731 162.482 32.219 162.43 32.4793L174.197 34.8327ZM174.506 31.736V5.336H162.506V31.736H174.506ZM174.506 5.336C174.506 5.11782 174.532 5.20448 174.451 5.48053C174.363 5.77642 174.12 6.38304 173.516 6.98663L165.031 -1.49864C162.835 0.69728 162.506 3.54752 162.506 5.336H174.506ZM173.516 6.98664C172.517 7.98624 171.561 7.88 171.962 7.88V-4.12C169.931 -4.12 167.183 -3.65025 165.031 -1.49864L173.516 6.98664ZM171.962 7.88H187.034V-4.12H171.962V7.88ZM187.034 7.88C187.199 7.88 187.042 7.90343 186.696 7.7881C186.314 7.66054 185.701 7.3596 185.141 6.73018L194.11 -1.24219C191.941 -3.68221 188.987 -4.12 187.034 -4.12V7.88ZM185.64 7.22845C185.01 6.66896 184.709 6.05605 184.582 5.67337C184.466 5.32737 184.49 5.17062 184.49 5.336H196.49C196.49 3.38272 196.052 0.428453 193.612 -1.74046L185.64 7.22845ZM184.49 5.336V30.68H196.49V5.336H184.49ZM184.49 30.68C184.49 32.0669 184.431 33.1312 184.339 33.9149L196.257 35.3171C196.42 33.9248 196.49 32.3651 196.49 30.68H184.49ZM184.309 34.2417C184.269 34.8827 184.171 35.4816 184.02 36.046L195.615 39.138C195.977 37.7824 196.198 36.3973 196.286 34.9903L184.309 34.2417ZM184.02 36.046C183.811 36.8321 183.54 37.7045 183.2 38.6671L194.516 42.6609C194.944 41.4475 195.313 40.2719 195.615 39.138L184.02 36.046ZM183.24 38.5573C182.883 39.5093 182.426 40.6675 181.864 42.0402L192.971 46.5838C193.561 45.1405 194.065 43.8667 194.476 42.7707L183.24 38.5573ZM181.847 42.0837L172.439 65.6037L183.581 70.0603L192.989 46.5403L181.847 42.0837ZM172.38 65.7578C172.318 65.9245 172.313 65.8718 172.438 65.7097C172.576 65.5303 172.838 65.2644 173.245 65.0452L178.934 75.6108C181.466 74.2476 182.875 71.9834 183.64 69.9062L172.38 65.7578ZM173.067 65.1453C173.282 65.0196 173.43 64.9834 173.448 64.9794C173.456 64.9775 173.435 64.9829 173.378 64.9886C173.321 64.9944 173.234 65 173.114 65V77C175.018 77 177.15 76.6555 179.113 75.5107L173.067 65.1453ZM203.111 70.232L198.626 74.2182L198.861 74.482L199.125 74.7165L203.111 70.232ZM203.111 2.744L198.868 -1.49864L198.868 -1.49864L203.111 2.744ZM252.935 2.744L248.45 6.73018L248.685 6.99397L248.949 7.22845L252.935 2.744ZM223.847 20.024V14.024H217.847V20.024H223.847ZM223.847 27.416H217.847V33.416H223.847V27.416ZM245.159 28.28L240.674 32.2662L240.909 32.53L241.173 32.7645L245.159 28.28ZM223.847 44.6V38.6H217.847V44.6H223.847ZM223.847 52.856H217.847V58.856H223.847V52.856ZM252.935 53.72L248.45 57.7062L248.685 57.97L248.949 58.2045L252.935 53.72ZM252.935 70.232L257.177 74.4746L257.177 74.4746L252.935 70.232ZM250.343 65H205.799V77H250.343V65ZM205.799 65C205.589 65 205.641 64.9753 205.863 65.0389C206.103 65.1073 206.586 65.2932 207.097 65.7475L199.125 74.7165C201.281 76.6336 203.921 77 205.799 77V65ZM207.595 66.2458C208.05 66.7569 208.235 67.2402 208.304 67.4797C208.367 67.7021 208.343 67.754 208.343 67.544H196.343C196.343 69.4214 196.709 72.0614 198.626 74.2182L207.595 66.2458ZM208.343 67.544V5.336H196.343V67.544H208.343ZM208.343 5.336C208.343 5.11782 208.369 5.20448 208.288 5.48053C208.2 5.77642 207.957 6.38304 207.353 6.98663L198.868 -1.49864C196.672 0.697276 196.343 3.54752 196.343 5.336H208.343ZM207.353 6.98664C206.354 7.98624 205.398 7.88 205.799 7.88V-4.12C203.768 -4.12 201.02 -3.65025 198.868 -1.49864L207.353 6.98664ZM205.799 7.88H250.343V-4.12H205.799V7.88ZM250.343 7.88C250.508 7.88 250.351 7.90343 250.005 7.7881C249.623 7.66054 249.01 7.3596 248.45 6.73018L257.419 -1.24219C255.25 -3.68221 252.296 -4.12 250.343 -4.12V7.88ZM248.949 7.22845C248.319 6.66896 248.018 6.05605 247.891 5.67337C247.775 5.32737 247.799 5.17062 247.799 5.336H259.799C259.799 3.38272 259.361 0.428453 256.921 -1.74046L248.949 7.22845ZM247.799 5.336V16.568H259.799V5.336H247.799ZM247.799 16.568C247.799 16.9691 247.693 16.013 248.692 15.0134L257.177 23.4986C259.329 21.347 259.799 18.5989 259.799 16.568H247.799ZM248.692 15.0134C249.296 14.4098 249.902 14.1669 250.198 14.0792C250.474 13.9974 250.561 14.024 250.343 14.024V26.024C252.131 26.024 254.981 25.6946 257.177 23.4986L248.692 15.0134ZM250.343 14.024H223.847V26.024H250.343V14.024ZM217.847 20.024V27.416H229.847V20.024H217.847ZM223.847 33.416H242.567V21.416H223.847V33.416ZM242.567 33.416C242.732 33.416 242.575 33.4394 242.229 33.3241C241.847 33.1965 241.234 32.8956 240.674 32.2662L249.643 24.2938C247.474 21.8538 244.52 21.416 242.567 21.416V33.416ZM241.173 32.7645C240.543 32.205 240.242 31.592 240.115 31.2094C239.999 30.8634 240.023 30.7066 240.023 30.872H252.023C252.023 28.9187 251.585 25.9645 249.145 23.7955L241.173 32.7645ZM240.023 30.872V41.144H252.023V30.872H240.023ZM240.023 41.144C240.023 41.5451 239.917 40.589 240.916 39.5894L249.401 48.0746C251.553 45.923 252.023 43.1749 252.023 41.144H240.023ZM240.916 39.5894C241.52 38.9858 242.126 38.7429 242.422 38.6552C242.698 38.5734 242.785 38.6 242.567 38.6V50.6C244.355 50.6 247.205 50.2706 249.401 48.0746L240.916 39.5894ZM242.567 38.6H223.847V50.6H242.567V38.6ZM217.847 44.6V52.856H229.847V44.6H217.847ZM223.847 58.856H250.343V46.856H223.847V58.856ZM250.343 58.856C250.508 58.856 250.351 58.8794 250.005 58.7641C249.623 58.6365 249.01 58.3356 248.45 57.7062L257.419 49.7338C255.25 47.2938 252.296 46.856 250.343 46.856V58.856ZM248.949 58.2045C248.319 57.645 248.018 57.032 247.891 56.6494C247.775 56.3034 247.799 56.1466 247.799 56.312H259.799C259.799 54.3587 259.361 51.4045 256.921 49.2355L248.949 58.2045ZM247.799 56.312V67.544H259.799V56.312H247.799ZM247.799 67.544C247.799 67.9451 247.693 66.989 248.692 65.9894L257.177 74.4746C259.329 72.323 259.799 69.5749 259.799 67.544H247.799ZM248.692 65.9894C249.296 65.3858 249.902 65.1429 250.198 65.0552C250.474 64.9734 250.561 65 250.343 65V77C252.131 77 254.981 76.6706 257.177 74.4746L248.692 65.9894ZM286.851 19.16V13.16H280.851V19.16H286.851ZM286.851 31.448H280.851V37.448H286.851V31.448ZM297.411 30.2L302.344 33.6153L302.403 33.5309L302.458 33.4445L297.411 30.2ZM297.411 20.504L292.364 23.7485L292.42 23.8349L292.478 23.9193L297.411 20.504ZM265.923 70.232L261.439 74.2182L261.673 74.482L261.937 74.7165L265.923 70.232ZM265.923 2.744L261.681 -1.49864L261.681 -1.49864L265.923 2.744ZM315.363 6.392L310.889 10.39L310.934 10.4402L310.98 10.4893L315.363 6.392ZM318.243 29.24L312.738 26.8544L312.718 26.9L312.699 26.9459L318.243 29.24ZM314.115 33.272L311.795 27.7388L290.47 36.6817L313.453 39.2353L314.115 33.272ZM322.467 37.496L317.937 41.4301L317.966 41.4637L317.996 41.4968L322.467 37.496ZM324.867 70.232L329.11 74.4746L329.11 74.4746L324.867 70.232ZM304.707 70.232L300.223 74.2182L300.457 74.482L300.721 74.7164L304.707 70.232ZM303.075 49.784L298.223 53.313L298.407 53.5656L298.615 53.7978L303.075 49.784ZM286.851 48.728V42.728H280.851V48.728H286.851ZM285.987 70.232L281.745 65.9894L281.745 65.9894L285.987 70.232ZM280.851 19.16V31.448H292.851V19.16H280.851ZM286.851 37.448H294.051V25.448H286.851V37.448ZM294.051 37.448C296.401 37.448 300.076 36.8924 302.344 33.6153L292.478 26.7847C293.009 26.0182 293.672 25.652 294.05 25.5114C294.365 25.3945 294.429 25.448 294.051 25.448V37.448ZM302.458 33.4445C303.772 31.4008 304.275 29.132 304.275 26.936H292.275C292.275 27.1273 292.254 27.1967 292.259 27.1766C292.262 27.1665 292.27 27.1381 292.288 27.0964C292.307 27.0544 292.332 27.0061 292.364 26.9555L302.458 33.4445ZM304.275 26.936V23.672H292.275V26.936H304.275ZM304.275 23.672C304.275 21.4955 303.779 19.1611 302.344 17.0887L292.478 23.9193C292.348 23.732 292.291 23.5733 292.271 23.4987C292.253 23.434 292.275 23.4776 292.275 23.672H304.275ZM302.458 17.2595C300.256 13.8339 296.554 13.16 294.051 13.16V25.16C294.39 25.16 294.273 25.2118 293.911 25.0669C293.472 24.8913 292.838 24.4862 292.364 23.7485L302.458 17.2595ZM294.051 13.16H286.851V25.16H294.051V13.16ZM283.395 65H268.611V77H283.395V65ZM268.611 65C268.401 65 268.453 64.9753 268.676 65.0389C268.915 65.1073 269.398 65.2932 269.909 65.7475L261.937 74.7165C264.094 76.6336 266.734 77 268.611 77V65ZM270.408 66.2458C270.862 66.7569 271.048 67.2402 271.116 67.4797C271.18 67.7021 271.155 67.754 271.155 67.544H259.155C259.155 69.4214 259.522 72.0614 261.439 74.2182L270.408 66.2458ZM271.155 67.544V5.336H259.155V67.544H271.155ZM271.155 5.336C271.155 5.11782 271.182 5.20448 271.1 5.48053C271.012 5.77642 270.769 6.38304 270.166 6.98663L261.681 -1.49864C259.485 0.697276 259.155 3.54752 259.155 5.336H271.155ZM270.166 6.98664C269.166 7.98624 268.21 7.88 268.611 7.88V-4.12C266.58 -4.12 263.832 -3.65025 261.681 -1.49864L270.166 6.98664ZM268.611 7.88H300.579V-4.12H268.611V7.88ZM300.579 7.88C307.279 7.88 309.964 9.3545 310.889 10.39L319.837 2.39401C315.387 -2.58651 308.215 -4.12 300.579 -4.12V7.88ZM310.98 10.4893C312.514 12.1304 313.491 14.4132 313.491 17.912H325.491C325.491 11.9388 323.716 6.54163 319.746 2.29469L310.98 10.4893ZM313.491 17.912V22.328H325.491V17.912H313.491ZM313.491 22.328C313.491 24.4194 313.165 25.8689 312.738 26.8544L323.749 31.6256C324.986 28.7711 325.491 25.6126 325.491 22.328H313.491ZM312.699 26.9459C312.582 27.2282 312.434 27.4709 311.795 27.7388L316.436 38.8052C319.765 37.4091 322.368 34.9638 323.787 31.5341L312.699 26.9459ZM313.453 39.2353C315.54 39.4673 316.896 40.2315 317.937 41.4301L326.997 33.5619C323.814 29.8965 319.602 27.8447 314.778 27.3087L313.453 39.2353ZM317.996 41.4968C318.97 42.5854 319.731 44.2736 319.731 47.192H331.731C331.731 42.0464 330.317 37.2706 326.939 33.4952L317.996 41.4968ZM319.731 47.192V67.544H331.731V47.192H319.731ZM319.731 67.544C319.731 67.9451 319.625 66.989 320.625 65.9894L329.11 74.4746C331.261 72.323 331.731 69.5749 331.731 67.544H319.731ZM320.625 65.9894C321.228 65.3858 321.835 65.1429 322.131 65.0552C322.407 64.9734 322.493 65 322.275 65V77C324.064 77 326.914 76.6706 329.11 74.4746L320.625 65.9894ZM322.275 65H307.395V77H322.275V65ZM307.395 65C307.185 65 307.237 64.9753 307.46 65.0389C307.699 65.1073 308.182 65.2932 308.693 65.7475L300.721 74.7164C302.878 76.6336 305.518 77 307.395 77V65ZM309.192 66.2458C309.646 66.7569 309.832 67.2402 309.9 67.4797C309.964 67.7021 309.939 67.754 309.939 67.544H297.939C297.939 69.4214 298.306 72.0614 300.223 74.2182L309.192 66.2458ZM309.939 67.544V52.856H297.939V67.544H309.939ZM309.939 52.856C309.939 50.8499 309.567 48.0281 307.535 45.7702L298.615 53.7978C298.159 53.2908 297.995 52.8268 297.947 52.6565C297.904 52.5008 297.939 52.5353 297.939 52.856H309.939ZM307.928 46.255C305.776 43.2964 302.48 42.728 300.291 42.728V54.728C300.477 54.728 300.277 54.7574 299.867 54.602C299.397 54.4238 298.746 54.0324 298.223 53.313L307.928 46.255ZM300.291 42.728H286.851V54.728H300.291V42.728ZM280.851 48.728V67.544H292.851V48.728H280.851ZM280.851 67.544C280.851 67.9451 280.745 66.989 281.745 65.9894L290.23 74.4746C292.381 72.323 292.851 69.5749 292.851 67.544H280.851ZM281.745 65.9894C282.348 65.3858 282.955 65.1429 283.251 65.0552C283.527 64.9734 283.613 65 283.395 65V77C285.184 77 288.034 76.6706 290.23 74.4746L281.745 65.9894ZM350.393 70.232L345.908 74.2182L346.143 74.482L346.407 74.7165L350.393 70.232ZM349.625 55.256H355.625V53.2638L354.433 51.6673L349.625 55.256ZM334.937 35.576L330.118 39.1511L330.123 39.1579L330.128 39.1647L334.937 35.576ZM331.961 30.392L326.221 32.139L326.255 32.2518L326.294 32.3631L331.961 30.392ZM332.057 2.744L327.814 -1.49864L327.814 -1.49864L332.057 2.744ZM352.121 2.744L347.636 6.73018L347.871 6.99397L348.135 7.22845L352.121 2.744ZM353.081 23.096L347.105 23.6392L347.105 23.6392L353.081 23.096ZM353.849 25.112L358.905 21.8817L358.837 21.775L358.764 21.6712L353.849 25.112ZM358.265 32.024L363.51 29.1101L363.42 28.949L363.321 28.7937L358.265 32.024ZM359.225 33.272L355.477 37.9572L355.68 38.1199L355.897 38.2643L359.225 33.272ZM362.777 33.272L359.449 28.2797L359.232 28.4241L359.029 28.5868L362.777 33.272ZM363.833 32.024L358.777 28.7937L358.677 28.949L358.588 29.1101L363.833 32.024ZM368.249 25.112L363.333 21.6712L363.261 21.775L363.193 21.8817L368.249 25.112ZM369.017 23.096L374.992 23.6392L374.992 23.6392L369.017 23.096ZM389.465 2.744L384.98 6.73018L385.215 6.99397L385.479 7.22845L389.465 2.744ZM389.561 30.392L383.894 28.4209L383.894 28.4209L389.561 30.392ZM386.681 35.576L391.509 39.1384L391.542 39.0937L391.574 39.0485L386.681 35.576ZM372.089 55.352L367.261 51.7896L366.089 53.378V55.352H372.089ZM371.225 70.232L375.467 74.4746L375.467 74.4746L371.225 70.232ZM368.633 65H353.081V77H368.633V65ZM353.081 65C352.871 65 352.923 64.9753 353.145 65.0389C353.385 65.1073 353.868 65.2932 354.379 65.7475L346.407 74.7165C348.563 76.6336 351.203 77 353.081 77V65ZM354.877 66.2458C355.332 66.7569 355.517 67.2402 355.586 67.4797C355.649 67.7021 355.625 67.754 355.625 67.544H343.625C343.625 69.4214 343.991 72.0614 345.908 74.2182L354.877 66.2458ZM355.625 67.544V55.256H343.625V67.544H355.625ZM354.433 51.6673L339.745 31.9873L330.128 39.1647L344.816 58.8447L354.433 51.6673ZM339.755 32.0009C338.46 30.2551 337.858 29.0837 337.628 28.4209L326.294 32.3631C327.087 34.6443 328.469 36.9289 330.118 39.1511L339.755 32.0009ZM337.701 28.645C337.518 28.0434 337.289 26.556 337.289 23.768H325.289C325.289 26.868 325.508 29.7966 326.221 32.139L337.701 28.645ZM337.289 23.768V5.336H325.289V23.768H337.289ZM337.289 5.336C337.289 5.11782 337.315 5.20448 337.234 5.48053C337.146 5.77642 336.903 6.38304 336.299 6.98663L327.814 -1.49864C325.618 0.697276 325.289 3.54752 325.289 5.336H337.289ZM336.299 6.98664C335.3 7.98624 334.344 7.88 334.745 7.88V-4.12C332.714 -4.12 329.966 -3.65025 327.814 -1.49864L336.299 6.98664ZM334.745 7.88H349.529V-4.12H334.745V7.88ZM349.529 7.88C349.694 7.88 349.537 7.90343 349.191 7.7881C348.809 7.66054 348.196 7.3596 347.636 6.73018L356.605 -1.24219C354.436 -3.68221 351.482 -4.12 349.529 -4.12V7.88ZM348.135 7.22845C347.505 6.66896 347.204 6.05605 347.077 5.67337C346.961 5.32737 346.985 5.17062 346.985 5.336H358.985C358.985 3.38272 358.547 0.428453 356.107 -1.74046L348.135 7.22845ZM346.985 5.336V21.08H358.985V5.336H346.985ZM346.985 21.08C346.985 21.9189 347.027 22.773 347.105 23.6392L359.056 22.5528C359.007 22.011 358.985 21.5211 358.985 21.08H346.985ZM347.105 23.6392C347.274 25.4917 347.95 27.1482 348.933 28.5528L358.764 21.6712C358.799 21.7214 358.865 21.8284 358.928 21.992C358.991 22.1587 359.038 22.3501 359.056 22.5528L347.105 23.6392ZM348.793 28.3423L353.209 35.2543L363.321 28.7937L358.905 21.8817L348.793 28.3423ZM353.02 34.9379C353.516 35.831 354.289 37.0073 355.477 37.9572L362.973 28.5868C363.277 28.8297 363.445 29.037 363.5 29.1097C363.561 29.188 363.56 29.2007 363.51 29.1101L353.02 34.9379ZM355.897 38.2643C357.373 39.2483 359.007 39.656 360.569 39.656V27.656C361.107 27.656 361.845 27.8077 362.553 28.2797L355.897 38.2643ZM360.569 39.656H361.529V27.656H360.569V39.656ZM361.529 39.656C363.055 39.656 364.898 39.2587 366.525 37.9572L359.029 28.5868C360.015 27.7973 361.026 27.656 361.529 27.656V39.656ZM366.105 38.2643C367.551 37.3003 368.479 36.0153 369.078 34.9379L358.588 29.1101C358.58 29.1249 358.626 29.0367 358.748 28.8924C358.872 28.7465 359.098 28.5137 359.449 28.2797L366.105 38.2643ZM368.889 35.2543L373.305 28.3423L363.193 21.8817L358.777 28.7937L368.889 35.2543ZM373.164 28.5528C374.147 27.1482 374.824 25.4918 374.992 23.6392L363.041 22.5528C363.06 22.3501 363.106 22.1587 363.17 21.992C363.232 21.8284 363.298 21.7214 363.333 21.6712L373.164 28.5528ZM374.992 23.6392C375.071 22.773 375.113 21.9189 375.113 21.08H363.113C363.113 21.5211 363.091 22.011 363.041 22.5528L374.992 23.6392ZM375.113 21.08V5.336H363.113V21.08H375.113ZM375.113 5.336C375.113 5.11782 375.139 5.20449 375.058 5.48053C374.97 5.77643 374.727 6.38304 374.123 6.98664L365.638 -1.49864C363.442 0.697271 363.113 3.54752 363.113 5.336H375.113ZM374.123 6.98664C373.124 7.98624 372.168 7.88 372.569 7.88V-4.12C370.538 -4.12 367.79 -3.65025 365.638 -1.49864L374.123 6.98664ZM372.569 7.88H386.873V-4.12H372.569V7.88ZM386.873 7.88C387.038 7.88 386.881 7.90343 386.535 7.7881C386.153 7.66054 385.54 7.3596 384.98 6.73018L393.949 -1.24219C391.78 -3.68221 388.826 -4.12 386.873 -4.12V7.88ZM385.479 7.22845C384.849 6.66896 384.548 6.05605 384.421 5.67337C384.305 5.32737 384.329 5.17062 384.329 5.336H396.329C396.329 3.38272 395.891 0.428453 393.451 -1.74046L385.479 7.22845ZM384.329 5.336V23.768H396.329V5.336H384.329ZM384.329 23.768C384.329 26.527 384.068 27.9194 383.894 28.4209L395.228 32.3631C396.077 29.9206 396.329 26.897 396.329 23.768H384.329ZM383.894 28.4209C383.641 29.1469 383.03 30.3534 381.788 32.1035L391.574 39.0485C393.148 36.8306 394.456 34.5811 395.228 32.3631L383.894 28.4209ZM381.853 32.0136L367.261 51.7896L376.917 58.9144L391.509 39.1384L381.853 32.0136ZM366.089 55.352V67.544H378.089V55.352H366.089ZM366.089 67.544C366.089 67.9451 365.983 66.989 366.982 65.9894L375.467 74.4746C377.619 72.323 378.089 69.5749 378.089 67.544H366.089ZM366.982 65.9894C367.586 65.3858 368.192 65.1429 368.488 65.0552C368.764 64.9734 368.851 65 368.633 65V77C370.421 77 373.271 76.6706 375.467 74.4746L366.982 65.9894Z" fill="white"/>
</svg>
